<svg width="171" height="32" viewBox="0 0 171 32" fill="none" xmlns="http://www.w3.org/2000/svg">
<g clip-path="url(#clip0_1974_192)">
<path fill-rule="evenodd" clip-rule="evenodd" d="M6.96572 10.1505V6.77774H9.55888V10.1505C9.55888 13.6897 6.80151 16.5588 3.40013 16.5588H0.158691V13.8606H3.40013C5.36935 13.8606 6.96572 12.1995 6.96572 10.1505Z" fill="black"/>
<path fill-rule="evenodd" clip-rule="evenodd" d="M9.55869 20.2688L9.55869 23.6416L6.96554 23.6416L6.96554 20.2688C6.96554 16.7296 9.7229 13.8605 13.1243 13.8605L16.3657 13.8605L16.3657 16.5588L13.1243 16.5588C11.1551 16.5588 9.55869 18.2198 9.55869 20.2688Z" fill="black"/>
<path d="M26.0925 23.6153H23.291V0.822632H26.0925V10.808C27.0164 9.16444 28.7748 8.04807 31.0398 8.04807C34.7652 8.04807 36.5534 10.4979 36.5534 14.3742V23.6463H33.7519V15.0254C33.7519 11.9554 32.3511 10.715 30.2649 10.715C27.5528 10.715 26.0925 12.7617 26.0925 15.3665V23.6153Z" fill="black"/>
<path d="M46.3942 24.0185C42.1025 24.0185 39.152 20.7934 39.152 16.0798C39.152 11.3352 42.0429 8.04807 46.275 8.04807C50.4176 8.04807 53.1297 11.0251 53.1297 15.5216V16.607L41.8641 16.638C42.0727 19.832 43.6821 21.5996 46.4538 21.5996C48.6294 21.5996 50.0599 20.6693 50.5368 18.9327H53.1595C52.4442 22.1888 50.0003 24.0185 46.3942 24.0185ZM46.275 10.4979C43.8311 10.4979 42.2814 12.0174 41.9237 14.6843H50.3282C50.3282 12.1725 48.7486 10.4979 46.275 10.4979Z" fill="black"/>
<path d="M58.792 23.6463H55.9905V0.822632H58.792V23.6463Z" fill="black"/>
<path d="M66.6712 23.6463L60.8 8.48221H63.7803L66.9692 16.9481C67.4759 18.3745 67.8931 19.646 68.1315 20.5763C68.3699 19.584 68.8468 18.2815 69.3534 16.9481L72.602 8.48221H75.5227L69.4429 23.6463H66.6712Z" fill="black"/>
<path d="M83.0428 24.0185C78.7512 24.0185 75.8007 20.7934 75.8007 16.0798C75.8007 11.3352 78.6916 8.04807 82.9236 8.04807C87.0662 8.04807 89.7783 11.0251 89.7783 15.5216V16.607L78.5127 16.638C78.7214 19.832 80.3307 21.5996 83.1024 21.5996C85.278 21.5996 86.7086 20.6693 87.1854 18.9327H89.8081C89.0928 22.1888 86.649 24.0185 83.0428 24.0185ZM82.9236 10.4979C80.4797 10.4979 78.93 12.0174 78.5723 14.6843H86.9768C86.9768 12.1725 85.3972 10.4979 82.9236 10.4979Z" fill="black"/>
<path d="M95.3415 23.6463H94.2388V1.25677H95.6097V11.9864C96.6528 9.56758 98.6198 8.38918 101.153 8.38918C105.355 8.38918 107.74 11.8003 107.74 16.2038C107.74 20.6073 105.355 24.0184 101.153 24.0184C98.6794 24.0184 96.623 22.8401 95.5501 20.2972L95.3415 23.6463ZM95.6395 16.2038C95.6395 19.9871 97.5767 22.716 101.004 22.716C104.402 22.716 106.339 19.9871 106.339 16.2038C106.339 12.4515 104.402 9.69162 101.004 9.69162C97.5767 9.69162 95.6395 12.4515 95.6395 16.2038Z" fill="#6793D5"/>
<path d="M117.614 8.54423V9.78465H116.541C113.889 9.78465 112.16 11.8003 112.16 14.5913V23.6463H110.789V8.76131H112.071L112.19 11.1491C112.756 9.47455 114.336 8.38918 116.363 8.38918C116.81 8.38918 117.137 8.42019 117.614 8.54423Z" fill="#6793D5"/>
<path d="M118.409 16.2038C118.409 11.7073 121.419 8.38918 125.502 8.38918C129.585 8.38918 132.595 11.7073 132.595 16.2038C132.595 20.7003 129.585 24.0184 125.502 24.0184C121.419 24.0184 118.409 20.7003 118.409 16.2038ZM119.81 16.2038C119.81 20.0181 122.164 22.716 125.502 22.716C128.84 22.716 131.195 20.0181 131.195 16.2038C131.195 12.3895 128.84 9.69162 125.502 9.69162C122.164 9.69162 119.81 12.3895 119.81 16.2038Z" fill="#6793D5"/>
<path d="M137.115 23.6463H135.744V1.25677H137.115V17.1031L144.894 8.76131H146.652L141.109 14.7153L146.712 23.6463H145.132L140.185 15.6766L137.115 18.9948V23.6463Z" fill="#6793D5"/>
<path d="M154.233 24.0184C150.09 24.0184 147.348 20.9174 147.348 16.2348C147.348 11.5833 150.061 8.38918 154.054 8.38918C157.779 8.38918 160.343 11.1801 160.343 15.2425V16.2348H148.719C148.839 20.2972 150.865 22.716 154.233 22.716C156.766 22.716 158.376 21.5686 158.942 19.3669H160.343C159.508 22.4369 157.452 24.0184 154.233 24.0184ZM154.054 9.69162C151.133 9.69162 149.077 11.8003 148.749 15.0564H158.942C158.942 11.8313 157.005 9.69162 154.054 9.69162Z" fill="#6793D5"/>
<path d="M170.196 8.54423V9.78465H169.123C166.471 9.78465 164.742 11.8003 164.742 14.5913V23.6463H163.371V8.76131H164.653L164.772 11.1491C165.338 9.47455 166.918 8.38918 168.944 8.38918C169.392 8.38918 169.719 8.42019 170.196 8.54423Z" fill="#6793D5"/>
</g>
<defs>
<clipPath id="clip0_1974_192">
<rect width="170.442" height="32" fill="white"/>
</clipPath>
</defs>
</svg>
